HIERARCHY
ROOT Hips
{
	OFFSET 0.000000 0.000000 0.000000
	CHANNELS 6 Xposition Yposition Zposition Xrotation Yrotation Zrotation
	JOINT LeftUpLeg_virtual
	{
		OFFSET 0.000000 0.000000 0.000000
		CHANNELS 3 Xrotation Yrotation Zrotation
		JOINT LeftUpLeg
		{
			OFFSET 15.427100 -6.655098 0.678600
			CHANNELS 3 Xrotation Yrotation Zrotation
			JOINT LeftLeg
			{
				OFFSET 4.081073 -39.591068 13.024000
				CHANNELS 3 Xrotation Yrotation Zrotation
				JOINT LeftFoot
				{
					OFFSET -4.081074 -37.707932 -15.979700
					CHANNELS 3 Xrotation Yrotation Zrotation
					JOINT LeftToeBase
					{
						OFFSET 5.346399 -15.068900 20.645000
						CHANNELS 3 Xrotation Yrotation Zrotation
						JOINT LeftToe_End
						{
							OFFSET 2.754700 0.931300 11.300900
							CHANNELS 3 Xrotation Yrotation Zrotation
							End Site
							{
								OFFSET 0 0 0
							}
						}
					}
				}
			}
		}
	}
	JOINT RightUpLeg_virtual
	{
		OFFSET 0.000000 0.000000 0.000000
		CHANNELS 3 Xrotation Yrotation Zrotation
		JOINT RightUpLeg
		{
			OFFSET -15.569500 -6.655098 0.678600
			CHANNELS 3 Xrotation Yrotation Zrotation
			JOINT RightLeg
			{
				OFFSET -4.081825 -39.591045 13.023800
				CHANNELS 3 Xrotation Yrotation Zrotation
				JOINT RightFoot
				{
					OFFSET 4.081824 -37.707954 -15.979600
					CHANNELS 3 Xrotation Yrotation Zrotation
					JOINT RightToeBase
					{
						OFFSET -5.346400 -15.068900 20.645000
						CHANNELS 3 Xrotation Yrotation Zrotation
						JOINT RightToe_End
						{
							OFFSET -2.754700 0.931300 11.300900
							CHANNELS 3 Xrotation Yrotation Zrotation
							End Site
							{
								OFFSET 0 0 0
							}
						}
					}
				}
			}
		}
	}
	JOINT Spine_virtual
	{
		OFFSET 0.000000 0.000000 0.000000
		CHANNELS 3 Xrotation Yrotation Zrotation
		JOINT Spine
		{
			OFFSET -0.279200 12.230698 -2.892100
			CHANNELS 3 Xrotation Yrotation Zrotation
			JOINT Spine1
			{
				OFFSET -0.232667 10.192268 -1.242267
				CHANNELS 3 Xrotation Yrotation Zrotation
				JOINT Spine1_split
				{
					OFFSET -0.232667 10.192268 -1.242267
					CHANNELS 3 Xrotation Yrotation Zrotation
					JOINT Spine2
					{
						OFFSET -0.232667 10.192268 -1.242267
						CHANNELS 3 Xrotation Yrotation Zrotation
						JOINT Neck_virtual
						{
							OFFSET 0.000000 0.000000 0.000000
							CHANNELS 3 Xrotation Yrotation Zrotation
							JOINT Neck
							{
								OFFSET -0.418800 17.814194 8.416900
								CHANNELS 3 Xrotation Yrotation Zrotation
								JOINT Head
								{
									OFFSET 0.000000 7.031097 3.806800
									CHANNELS 3 Xrotation Yrotation Zrotation
									JOINT HeadTop_End
									{
										OFFSET 0.000000 24.646606 12.978600
										CHANNELS 3 Xrotation Yrotation Zrotation
										End Site
										{
											OFFSET 0 0 0
										}
									}
								}
							}
						}
						JOINT LeftShoulder_virtual
						{
							OFFSET 0.000000 0.000000 0.000000
							CHANNELS 3 Xrotation Yrotation Zrotation
							JOINT LeftShoulder
							{
								OFFSET 8.476499 7.247704 -3.868750
								CHANNELS 3 Xrotation Yrotation Zrotation
								JOINT LeftShoulder_split
								{
									OFFSET 8.476499 7.247704 -3.868750
									CHANNELS 3 Xrotation Yrotation Zrotation
									JOINT LeftArm
									{
										OFFSET 9.308998 -2.777710 0.208600
										CHANNELS 3 Xrotation Yrotation Zrotation
										JOINT LeftForeArm
										{
											OFFSET 29.972298 0.000000 0.000000
											CHANNELS 3 Xrotation Yrotation Zrotation
											JOINT LeftHand
											{
												OFFSET 26.026505 0.000000 0.000000
												CHANNELS 3 Xrotation Yrotation Zrotation
												End Site
												{
													OFFSET 0 0 0
												}
											}
										}
									}
								}
							}
						}
						JOINT RightShoulder_virtual
						{
							OFFSET 0.000000 0.000000 0.000000
							CHANNELS 3 Xrotation Yrotation Zrotation
							JOINT RightShoulder
							{
								OFFSET -7.570500 7.247704 -3.868750
								CHANNELS 3 Xrotation Yrotation Zrotation
								JOINT RightShoulder_split
								{
									OFFSET -7.570500 7.247704 -3.868750
									CHANNELS 3 Xrotation Yrotation Zrotation
									JOINT RightArm
									{
										OFFSET -9.308998 -2.777710 0.208500
										CHANNELS 3 Xrotation Yrotation Zrotation
										JOINT RightForeArm
										{
											OFFSET -29.972300 0.000000 0.000000
											CHANNELS 3 Xrotation Yrotation Zrotation
											JOINT RightHand
											{
												OFFSET -26.026505 0.000000 0.000000
												CHANNELS 3 Xrotation Yrotation Zrotation
												End Site
												{
													OFFSET 0 0 0
												}
											}
										}
									}
								}
							}
						}
					}
				}
			}
		}
	}
}
MOTION
Frames: 4
Frame Time: 0.03333333
3.425623 64.454758 -50.233795 0.000000 0.000000 0.000000 26.378541 -77.633993 24.191459 -36.894831 -7.701947 32.785711 73.934032 5.598480 -0.614256 -26.546891 9.904396 -32.324768 -5.627722 -2.915761 3.542455 0.000000 0.000000 0.000000 29.320015 -77.193152 27.313465 -49.704967 3.363158 -19.460251 77.816332 17.280061 -1.783663 -33.009088 -3.919078 5.260547 0.586560 1.766831 1.263572 0.000000 0.000000 0.000000 40.215081 -82.014316 38.489475 4.726119 11.183648 -4.268948 10.350407 18.790812 -6.263260 0.854205 -5.587469 2.028070 0.000000 0.000000 0.000000 12.473956 18.202599 -7.748811 -0.401986 2.039842 3.389007 4.623690 2.410996 -6.256189 0.000000 0.000000 0.000000 10.183032 18.460415 -7.099377 4.403302 -4.841626 -0.504655 1.452897 3.417613 0.459153 -75.196510 -30.286083 -60.855169 55.358113 -75.928932 54.121975 0.000000 0.000000 0.000000 9.288038 18.617917 -6.483596 5.506919 8.904801 -2.362351 -2.460787 5.928493 -3.683435 -48.027025 -3.900121 29.083338 -15.630188 43.601489 1.926895 0.000000 0.000000 0.000000 
3.701072 64.041145 -50.467163 0.000000 0.000000 0.000000 36.664876 -74.234703 33.879200 -42.786911 -8.531504 33.336743 74.886857 4.993626 -1.106453 -26.492058 8.318810 -30.761946 -5.998550 -3.231108 3.367160 0.000000 0.000000 0.000000 36.554264 -74.512214 34.803837 -52.237557 3.075326 -20.587601 78.276044 17.034335 0.349320 -36.008778 -3.974254 4.287160 3.080564 1.649652 0.896038 0.000000 0.000000 0.000000 46.622369 -78.038927 44.425470 5.283422 10.921280 -4.170933 10.997066 18.111746 -6.463570 1.066052 -6.249838 1.957898 0.000000 0.000000 0.000000 12.408204 17.668028 -7.528692 -0.516124 4.332799 3.950534 1.930338 4.953874 -9.980162 0.000000 0.000000 0.000000 10.506581 17.827507 -7.410520 3.583579 -5.115284 -2.799389 -0.187560 2.901835 0.114722 -60.874102 -21.226498 -55.762631 52.226598 -72.063229 49.612619 0.000000 0.000000 0.000000 9.672273 18.261190 -6.402402 4.861601 8.902069 0.476310 -1.975706 5.969560 -4.431363 -42.263028 -9.990997 29.833713 -15.138971 43.054179 5.332294 0.000000 0.000000 0.000000 
3.856447 64.185501 -50.546516 0.000000 0.000000 0.000000 43.434761 -71.243313 40.549747 -48.059363 -8.681878 33.293091 74.515137 4.216596 -1.303032 -25.305533 6.558952 -28.610226 -6.533302 -3.632256 3.133495 0.000000 0.000000 0.000000 40.901837 -71.930894 39.775508 -54.444391 3.766254 -22.284197 78.172949 17.250833 1.748340 -36.745742 -3.750102 5.595599 3.203090 1.534894 0.482223 0.000000 0.000000 0.000000 48.885505 -74.175281 46.429492 5.602394 10.602506 -3.726883 11.504005 17.397791 -6.448192 1.348762 -6.406858 1.641337 0.000000 0.000000 0.000000 12.183987 17.039655 -7.095480 -0.871793 6.404703 4.296162 0.144161 7.517090 -13.529155 0.000000 0.000000 0.000000 10.708384 17.143698 -7.459921 3.036301 -4.624658 -4.312478 -1.104171 2.337924 -0.213391 -47.086040 -11.723032 -52.847154 41.640726 -68.349881 38.781920 0.000000 0.000000 0.000000 9.972870 17.756122 -6.186509 4.385696 8.915640 3.007063 -1.269993 6.448002 -4.605653 -35.060799 -17.318614 32.335960 -14.630431 43.521754 7.856010 0.000000 0.000000 0.000000 
4.015721 64.490128 -50.839447 0.000000 0.000000 0.000000 46.187689 -68.686650 43.739712 -52.398145 -8.362819 32.572892 73.497507 3.197820 -1.156255 -22.942291 5.074469 -26.715737 -6.462305 -3.942338 2.833883 0.000000 0.000000 0.000000 43.134291 -69.685797 42.770361 -55.761699 5.376137 -23.973093 77.592458 17.711772 2.130805 -36.423562 -3.407382 8.480470 1.910435 1.369500 0.267694 0.000000 0.000000 0.000000 48.950644 -71.025867 46.553121 5.636813 10.236221 -3.051584 11.878548 16.677548 -6.298333 1.436678 -5.998537 1.468673 0.000000 0.000000 0.000000 11.852262 16.317042 -6.580462 -1.439718 8.112296 4.390825 -0.728236 9.654398 -16.569714 0.000000 0.000000 0.000000 10.851385 16.401842 -7.292440 2.698419 -3.803790 -5.022847 -1.023646 1.623394 -0.470974 -34.340829 -3.551820 -53.239552 29.439027 -64.662910 26.993162 0.000000 0.000000 0.000000 10.291148 17.144342 -5.904936 3.995624 9.255071 5.463536 -0.659507 6.843882 -4.397818 -25.975008 -24.384228 37.032247 -13.981604 43.622472 9.317030 0.000000 0.000000 0.000000 
